<svg width="842" height="59" viewBox="0 0 842 59" fill="none" xmlns="http://www.w3.org/2000/svg">
<path d="M932 22.5107V6.78067C854.762 -4.31897 792.11 7.67744 732.109 12.3363C673.876 16.8579 644.103 24.3102 588.138 31.46C570.959 33.6547 541.486 42.5635 521.096 42.5635C510.783 42.5635 464.178 37.2738 409.564 26.8335C356.193 16.6307 295.23 1.27594 248.292 0.925294C211.119 0.647588 178.565 10.0866 148.81 15.73C120.685 21.0643 94.9506 21.071 63.8488 21.071C41.4533 21.071 19.0837 20.7743 -1.33982 17.2722C-39.2867 10.7652 -69 0 -69 0V21.071C-69 21.071 -41.8818 28.6839 -5.35617 33.0022C19.1672 35.9014 46.5561 37.6286 73.7352 37.6286C120.729 37.6286 151.786 25.4274 191.754 19.7396C198.521 18.7766 204.302 16.6947 212.454 16.9637C220.606 17.2327 233.772 15.0534 233.772 15.0534C241.28 13.84 246.939 13.5204 253.544 14.1878C271.289 15.9808 285.05 18.175 303.903 21.2818C309.704 22.2376 311.748 23.862 316.57 24.7508C375.167 35.5498 417.202 50.9595 487.111 57.3682C520.076 60.3901 556.688 53.2011 594.317 47.4984C643.996 39.9695 695.446 32.3262 742.613 27.4495C876.08 6.78067 932 22.5107 932 22.5107Z" fill="#F9F1ED"/>
</svg>
