<svg width="353" height="417" viewBox="0 0 353 417" fill="none" xmlns="http://www.w3.org/2000/svg">
<path d="M0.5 194.5C0.500208 148 34.5 81.5 50.5 70C66.5 58.5 86.5 54 106 54C125.5 54 147.5 56 199 55C261.854 57.8338 331.917 65.0098 337.035 35.5002C345.534 -13.4985 352.002 2.50101 352.002 2.50101V416.001C352.002 416.001 338.478 393.724 328.003 369C317.529 344.276 313.503 341.5 308.003 329.5C302.503 317.5 291.514 313.867 288.5 313C262.562 305.54 197.36 310.396 144.503 309.5C126.975 309.203 92.5008 312.5 64.5 301C36.4992 289.5 35.0718 290.5 24.5 269C13.9282 247.5 0.499792 241 0.5 194.5Z" fill="#F9F1ED"/>
</svg>
