<svg width="204" height="187" viewBox="0 0 204 187" fill="none" xmlns="http://www.w3.org/2000/svg">
<g opacity="0.2">
<path d="M34.9698 163.419C2.81329 129.899 62.8388 69.2744 89.2786 52.1574C94.348 48.8754 99.1285 46.7471 103.544 45.4507C99.3559 43.8525 95.6036 36.8619 94.9953 35.0403C94.2807 32.9007 99.9974 32.1875 104.285 32.1875C108.572 32.1875 112.145 37.8932 117.862 37.18C123.579 36.4668 128.581 32.1875 131.439 32.1875C134.298 32.1875 133.583 33.6139 133.583 33.6139C133.583 33.6139 125.787 43.1104 123.994 44.8C130.538 46.4178 134.298 49.3045 134.298 49.3045C134.298 49.3045 210.044 99.9424 203.613 139.169C197.181 178.395 161.452 179.822 161.452 179.822C161.452 179.822 67.1262 196.94 34.9698 163.419Z" fill="#90B3F9"/>
<path d="M124.347 45.0651C119.187 47.6402 121.013 52.2957 111.983 52.2957C102.953 52.2957 105.49 48.3519 102.91 45.7768C100.33 43.2018 100.373 47.7894 100.373 47.7894C100.373 47.7894 99.728 56.802 111.983 56.1582C124.238 55.5145 124.347 45.0651 124.347 45.0651ZM124.347 45.0651C128.951 44.2703 164.874 63.8834 157.778 83.1962M124.347 45.0651C124.347 45.0651 141.498 76.446 129.35 94.9896C117.202 113.533 147.661 142.626 142.927 144.201" stroke="#F2C900"/>
<path d="M105.107 33.3741C105.107 33.3741 109.395 38.3666 114.397 38.3666C119.399 38.3666 125.116 34.0874 130.118 33.3741C135.12 32.6608 132.976 36.2269 137.264 33.3741C141.551 30.5212 143.695 27.6684 143.695 24.1023C143.695 20.5362 141.082 21.0595 139.408 19.1098C139.408 19.1098 142.266 18.3966 143.695 13.4041C145.124 8.41162 137.978 4.84555 133.691 4.13234C129.403 3.41912 130.118 8.41152 126.545 8.41162C122.972 8.41172 118.684 4.84568 117.97 2.70591C117.255 0.566132 114.397 -0.146946 110.824 2.70591C107.251 5.55876 104.392 7.6984 99.3903 6.98519C94.3882 6.27198 94.3882 6.27198 92.2444 5.55877L92.2444 5.55876C90.1006 4.84555 82.9547 6.98519 82.9547 11.2645C82.9547 15.5438 85.813 15.5438 84.3839 17.6834C82.9547 19.823 77.9525 17.6834 78.6671 21.9627C79.3817 26.242 84.3839 26.242 84.3839 26.242C84.3839 26.242 81.5255 28.3816 82.9547 30.5212C84.3839 32.6609 87.2422 35.5137 93.6736 34.8005C100.105 34.0873 98.2938 32.2623 105.107 33.3741Z" fill="#90B3F9" stroke="#6293F7" stroke-width="0.5"/>
<path d="M50.3309 107.07C54.6803 115.864 61.9293 118.093 79.3268 119.181C96.7244 120.268 101.008 123.251 115.506 115.558C130.004 107.865 130.07 85.0498 109.773 67.4339C89.4754 49.818 45.9815 98.2755 50.3309 107.07Z" fill="#CDDCFB" fill-opacity="0.42"/>
<path d="M180.265 107.809C180.265 107.809 188.25 130.282 185.079 143.478C181.908 156.673 155.782 172.723 155.782 172.723C155.782 172.723 191.409 163.172 194.022 146.836C196.634 130.5 180.265 107.809 180.265 107.809Z" fill="#ADC8FF"/>
<path d="M89.745 165.811C89.745 174.579 77.5493 182.746 64.2931 183.805C53.4577 183.805 45.7344 181.989 45.7344 173.22C45.7344 164.452 60.8812 154.168 71.7166 154.168C82.5519 154.168 89.745 157.042 89.745 165.811Z" fill="#FFFB87"/>
<path d="M87.1036 166.423C87.1036 174.452 75.9364 181.93 63.7982 182.899C53.8766 182.899 46.8047 181.236 46.8047 173.207C46.8047 165.178 60.674 155.762 70.5956 155.762C80.5172 155.762 87.1036 158.394 87.1036 166.423Z" fill="#F6B71B"/>
<path d="M82.85 164.206C82.85 164.206 83.3802 162.089 80.729 159.443C78.0777 156.797 69.8837 156.866 69.8837 156.866L77.5475 159.443L82.85 164.206Z" fill="#FAFF00"/>
<path d="M88.1543 176.916C85.503 180.62 74.3678 187.5 59.5208 186.971C59.5208 186.971 50.5066 185.912 48.3856 182.208C46.2646 178.503 45.7344 174.269 45.7344 174.269C45.7344 174.269 48.9159 188.559 72.7771 181.15C96.6382 173.741 87.1331 158.689 88.1543 159.98C89.1754 161.272 90.8055 163.685 91.3358 166.331C91.866 168.977 90.8055 173.211 88.1543 176.916Z" fill="#DEE157"/>
<path d="M72.4657 182.667L72.7345 181.968L73.4345 182.237L74.2972 184.17L74.0286 184.869L73.3284 184.601L72.4657 182.667Z" fill="#CBCE38"/>
<path d="M58.5757 184.013L58.9788 183.382L59.6111 183.784L60.0701 185.85L59.6674 186.482L59.0348 186.079L58.5757 184.013Z" fill="#CBCE38"/>
<path d="M54.3384 183.367L54.8038 182.807L55.391 183.238L55.6352 185.224L55.1701 185.784L54.5826 185.353L54.3384 183.367Z" fill="#CBCE38"/>
<path d="M76.7 181.03L76.9689 180.332L77.6689 180.6L78.5315 182.534L78.2629 183.232L77.5627 182.964L76.7 181.03Z" fill="#CBCE38"/>
<path d="M80.95 178.878L81.2189 178.179L81.9189 178.447L82.7815 180.381L82.5129 181.08L81.8127 180.812L80.95 178.878Z" fill="#CBCE38"/>
<path d="M85.1805 175.683L85.4494 174.984L86.1493 175.252L87.012 177.186L86.7434 177.885L86.0432 177.617L85.1805 175.683Z" fill="#CBCE38"/>
<path d="M88.3719 171.468L88.6408 170.769L89.3407 171.037L90.2034 172.971L89.9348 173.67L89.2346 173.402L88.3719 171.468Z" fill="#CBCE38"/>
<path d="M66.87 165.08C66.87 173.849 54.6743 182.016 41.4181 183.074C30.5827 183.074 22.8594 181.258 22.8594 172.49C22.8594 163.721 38.0062 153.438 48.8416 153.438C59.6769 153.438 66.87 156.312 66.87 165.08Z" fill="#FFFB87"/>
<path d="M64.2286 165.696C64.2286 173.725 53.0614 181.203 40.9232 182.172C31.0016 182.172 23.9297 180.509 23.9297 172.48C23.9297 164.451 37.799 155.035 47.7206 155.035C57.6422 155.035 64.2286 157.667 64.2286 165.696Z" fill="#F6B71B"/>
<path d="M59.975 163.456C59.975 163.456 60.5052 161.339 57.854 158.693C55.2027 156.047 47.0087 156.116 47.0087 156.116L54.6725 158.693L59.975 163.456Z" fill="#FAFF00"/>
<path d="M65.2793 176.177C62.628 179.882 51.4928 186.762 36.6458 186.233C36.6458 186.233 27.6316 185.174 25.5106 181.47C23.3896 177.765 22.8594 173.531 22.8594 173.531C22.8594 173.531 26.0409 187.82 49.9021 180.411C73.7632 173.003 64.2581 157.951 65.2793 159.242C66.3004 160.533 67.9305 162.947 68.4608 165.593C68.991 168.239 67.9305 172.473 65.2793 176.177Z" fill="#DEE157"/>
<g filter="url(#filter0_f)">
<ellipse cx="58.7155" cy="162.372" rx="5.83273" ry="4.65718" fill="white"/>
</g>
<path d="M49.5907 181.933L49.8595 181.234L50.5595 181.502L51.4222 183.436L51.1536 184.135L50.4534 183.867L49.5907 181.933Z" fill="#CBCE38"/>
<path d="M35.7007 183.255L36.1038 182.624L36.7361 183.026L37.1951 185.093L36.7924 185.724L36.1598 185.322L35.7007 183.255Z" fill="#CBCE38"/>
<path d="M31.4829 182.625L31.9483 182.064L32.5355 182.496L32.7798 184.481L32.3147 185.042L31.7272 184.61L31.4829 182.625Z" fill="#CBCE38"/>
<path d="M53.8329 180.292L54.1017 179.593L54.8017 179.862L55.6644 181.795L55.3958 182.494L54.6955 182.226L53.8329 180.292Z" fill="#CBCE38"/>
<path d="M58.075 178.144L58.3439 177.445L59.0439 177.713L59.9065 179.647L59.6379 180.346L58.9377 180.078L58.075 178.144Z" fill="#CBCE38"/>
<path d="M62.325 174.952L62.5939 174.253L63.2939 174.522L64.1565 176.456L63.8879 177.154L63.1877 176.886L62.325 174.952Z" fill="#CBCE38"/>
<path d="M65.5125 170.741L65.7814 170.043L66.4814 170.311L67.344 172.245L67.0754 172.943L66.3752 172.675L65.5125 170.741Z" fill="#CBCE38"/>
<path d="M44.0106 164.377C44.0106 173.146 31.8149 181.313 18.5587 182.371C7.72332 182.371 0 180.555 0 171.786C0 163.018 15.1468 152.734 25.9822 152.734C36.8176 152.734 44.0106 155.609 44.0106 164.377Z" fill="#FFFB87"/>
<path d="M41.3692 164.993C41.3692 173.022 30.202 180.5 18.0638 181.469C8.14227 181.469 1.07031 179.806 1.07031 171.777C1.07031 163.748 14.9397 154.332 24.8612 154.332C34.7828 154.332 41.3692 156.964 41.3692 164.993Z" fill="#F6B71B"/>
<path d="M37.1156 162.761C37.1156 162.761 37.6458 160.644 34.9946 157.998C32.3434 155.352 24.1493 155.42 24.1493 155.42L31.8131 157.998L37.1156 162.761Z" fill="#FAFF00"/>
<path d="M42.4199 175.486C39.7686 179.19 28.6334 186.07 13.7864 185.541C13.7864 185.541 4.77221 184.483 2.65121 180.778C0.530208 177.074 0 172.84 0 172.84C0 172.84 3.1815 187.129 27.0427 179.72C50.9039 172.311 41.3987 157.26 42.4199 158.551C43.441 159.842 45.0711 162.255 45.6014 164.902C46.1316 167.548 45.0711 171.781 42.4199 175.486Z" fill="#DEE157"/>
<g filter="url(#filter1_f)">
<ellipse cx="35.8405" cy="163.794" rx="5.83273" ry="4.65718" fill="white"/>
</g>
<path d="M26.7313 181.237L27.0002 180.539L27.7001 180.807L28.5628 182.741L28.2942 183.439L27.594 183.171L26.7313 181.237Z" fill="#CBCE38"/>
<path d="M12.8413 182.575L13.2444 181.944L13.8767 182.346L14.3358 184.413L13.933 185.044L13.3004 184.642L12.8413 182.575Z" fill="#CBCE38"/>
<path d="M8.60403 181.934L9.0694 181.373L9.65662 181.805L9.90084 183.79L9.43574 184.351L8.84825 183.919L8.60403 181.934Z" fill="#CBCE38"/>
<path d="M30.9657 179.593L31.2345 178.894L31.9345 179.162L32.7972 181.096L32.5286 181.795L31.8284 181.527L30.9657 179.593Z" fill="#CBCE38"/>
<path d="M35.2157 177.468L35.4845 176.769L36.1845 177.037L37.0472 178.971L36.7786 179.67L36.0784 179.402L35.2157 177.468Z" fill="#CBCE38"/>
<path d="M39.4461 174.273L39.715 173.574L40.415 173.842L41.2776 175.776L41.009 176.475L40.3088 176.206L39.4461 174.273Z" fill="#CBCE38"/>
<path d="M42.6375 170.038L42.9064 169.339L43.6064 169.608L44.469 171.542L44.2004 172.24L43.5002 171.972L42.6375 170.038Z" fill="#CBCE38"/>
</g>
<defs>
<filter id="filter0_f" x="48.8828" y="153.715" width="19.6655" height="17.3144" filterUnits="userSpaceOnUse" color-interpolation-filters="sRGB">
<feFlood flood-opacity="0" result="BackgroundImageFix"/>
<feBlend mode="normal" in="SourceGraphic" in2="BackgroundImageFix" result="shape"/>
<feGaussianBlur stdDeviation="2" result="effect1_foregroundBlur"/>
</filter>
<filter id="filter1_f" x="26.0078" y="155.137" width="19.6655" height="17.3144" filterUnits="userSpaceOnUse" color-interpolation-filters="sRGB">
<feFlood flood-opacity="0" result="BackgroundImageFix"/>
<feBlend mode="normal" in="SourceGraphic" in2="BackgroundImageFix" result="shape"/>
<feGaussianBlur stdDeviation="2" result="effect1_foregroundBlur"/>
</filter>
</defs>
</svg>
