<svg width="927" height="851" viewBox="0 0 927 851" fill="none" xmlns="http://www.w3.org/2000/svg">
<path d="M149.454 203.915C152.454 111.76 223.957 61.419 315.961 41.9323C362.52 32.071 456.095 15.8898 529.163 -2H930L927 801.555C915.619 832.566 877.376 839.111 830.5 844C768.5 847.5 629.7 844.7 570.5 805.5C511.3 766.3 440.5 777.833 412.5 788.5C287.5 857.5 203 855.893 150 844.5C97 833.108 -6.75333 802.725 0.446998 721.53C9.4474 620.037 56.9496 586.342 116.452 501.493C175.955 416.645 146.454 296.071 149.454 203.915Z" fill="#FF8178" fill-opacity="0.05"/>
</svg>
