<svg width="1440" height="80" xmlns="http://www.w3.org/2000/svg" fill="none">

 <g>
  <title>Layer 1</title>
  <path id="svg_1" fill-opacity="0.05" fill="#FF8178" d="m205.5,-825.894c-80.4,-65.2005 -179.3333,-115.606 -205.5,-124.106l0,280l0,716l151.5,-25c43.5,25 212.546,1.268 275,25c75,28.5 229,0 293.5,0c64.5,0 223.784,-19.968 291,-25c93.06,-6.967 357.54,20.173 429,2l0,-947.5c-110.67,52.7943 -212,98.606 -296.5,123.606c-67.6,20 -178.833,87.666 -226,119l-197.5,69c-60.667,-24 -185.8,-71.4 -201,-69c-19,3 -213,-62.5 -313.5,-144z"/>
 </g>
</svg>