<svg width="100" height="1306" viewBox="0 0 100 1306" fill="none" xmlns="http://www.w3.org/2000/svg">
<path d="M330.443 25.1744C275.647 42.4544 98.9557 -3.62437 32.46 46.7752C-13.7063 81.7663 -1.03764 227.804 12.4612 311.119C25.9601 394.433 30.9605 692.719 14.4615 823.348C-2.03759 953.977 -11.1576 1249.16 27.4984 1260C71.4959 1272.35 77.5227 1261.72 116.993 1264.12C174.49 1267.61 240.05 1270.71 261.947 1281.06C298.945 1298.55 555.273 1285.17 614.928 1263.58C675.961 1241.49 854.414 1298.55 956.408 1305.75C1058.4 1312.95 1068.4 1163.81 1071.9 1084.61C1075.4 1005.41 1069.19 687.913 1081.9 557.976C1097.9 394.433 1111.9 104.374 1042.9 44.718C965.356 -22.3312 881.695 11.0685 840.915 25.1744C784.417 44.7168 662.573 8.64422 614.928 3.57437C527.932 -5.68261 398.94 3.57437 330.443 25.1744Z" fill="#EDF0F4"/>
</svg>
