<svg width="1095" height="1091" viewBox="0 0 1095 1091" fill="none" xmlns="http://www.w3.org/2000/svg">
<path d="M330.443 21.0301C275.647 35.4654 98.9557 -3.02771 32.46 39.0748C-13.7063 68.3056 -1.03764 190.302 12.4612 259.901C25.9601 329.5 30.9605 578.681 14.4615 687.805C-2.03759 796.929 -11.1576 1043.52 27.4984 1052.57C71.4959 1062.89 77.5227 1054.01 116.993 1056.01C174.49 1058.93 240.05 1061.52 261.947 1070.17C298.945 1084.78 555.273 1073.6 614.927 1055.56C675.961 1037.11 854.414 1084.78 956.408 1090.79C1058.4 1096.8 1068.4 972.214 1071.9 906.052C1075.4 839.891 1069.19 574.666 1081.9 466.12C1097.9 329.5 1111.9 87.1915 1042.9 37.3563C965.356 -18.655 881.695 9.24635 840.915 21.0301C784.417 37.3553 662.573 7.22116 614.927 2.98594C527.932 -4.74711 398.939 2.98594 330.443 21.0301Z" fill="#90B3F9" fill-opacity="0.11"/>
</svg>
