<svg width="1095" height="717" viewBox="0 0 1095 717" fill="none" xmlns="http://www.w3.org/2000/svg">
<path d="M330.443 13.8209C275.647 23.3077 98.9557 -1.98979 32.46 25.6798C-13.7063 44.8901 -1.03764 125.066 12.4612 170.806C25.9601 216.546 30.9605 380.306 14.4615 452.022C-2.03759 523.738 -11.1576 685.793 27.4984 691.747C71.4959 698.523 77.5227 692.691 116.993 694.006C174.49 695.922 240.05 697.628 261.947 703.309C298.945 712.909 555.273 705.562 614.927 693.71C675.961 681.583 854.414 712.909 956.408 716.862C1058.4 720.815 1068.4 638.935 1071.9 595.453C1075.4 551.972 1069.19 377.667 1081.9 306.331C1097.9 216.546 1111.9 57.3018 1042.9 24.5504C965.356 -12.26 881.695 6.07666 840.915 13.8209C784.417 24.5497 662.573 4.74572 614.927 1.96235C527.932 -3.11978 398.939 1.96235 330.443 13.8209Z" fill="#90B3F9" fill-opacity="0.11"/>
</svg>
