<svg width="100" height="9090" viewBox="0 0 100 9090" fill="none" xmlns="http://www.w3.org/2000/svg">
<path d="M220.5 32.9999C84.7835 32.9999 10.5 -89.5001 34.4555 306.094C49.9069 561.251 0.958067 1606.84 14.457 2205.48C27.9559 2804.12 32.956 4947.39 16.4569 5886C-0.0422192 6824.61 -13.6601 8871.84 24.9961 8949.76C68.9938 9038.45 130.317 9043.01 173 9043.01C241.5 9043.01 239.499 9051.34 360 9072C482.615 9093.03 534.91 9043.01 693 9043.01C938.074 9043.01 896.922 9090 1010 9090C1145 9090 1070.4 8332.29 1073.9 7763.21C1077.4 7194.14 1071.19 4912.86 1083.9 3979.22C1099.9 2804.12 1062.99 686.091 1062.99 251.927C1062.99 -92.5 944.5 20.4998 841 12.4999C690.092 0.835626 594.476 12.4999 534.5 12.4999C491.5 12.4999 389 32.9999 220.5 32.9999Z" fill="#FF8178" fill-opacity="0.05"/>
</svg>
